<svg width="212" height="24" viewBox="0 0 212 24" fill="none" xmlns="http://www.w3.org/2000/svg">
<g clip-path="url(#clip0_1_969)">
<path d="M109.16 0L103.837 14.9372L99.4972 0H94.9519C94.1602 0 93.4564 0.48833 93.1925 1.23519L85.0696 24H90.9345L96.2569 9.0772L100.612 24H105.157C105.949 24 106.667 23.5117 106.916 22.7792L115.039 0H109.16Z" fill="black"/>
<path d="M117.781 1.23519L109.658 24H114.203C114.995 24 115.699 23.5117 115.963 22.7792L124.086 0H119.54C118.749 0.0143627 118.045 0.502693 117.781 1.23519Z" fill="black"/>
<path d="M90.4362 0L82.3134 22.7648C82.0495 23.4973 81.3457 23.9856 80.5539 23.9856H76.0087L81.3457 9.03411L70.613 24H64.4109L64.1323 9.0772L58.81 24H52.9451L61.068 1.23519C61.3319 0.502693 62.0357 0.0143627 62.8274 0H68.0325L69.8799 17.1203L82.2841 1.49372C83.0318 0.545781 84.1902 0 85.4071 0H90.4362V0Z" fill="black"/>
<path d="M164.92 5.74506H164.935L165.037 5.44345C165.8 3.30341 164.641 0.976661 162.457 0.229803C162.017 0.0861759 161.548 0 161.078 0H148.396L148.058 0.962298L143.088 14.8653H147.633C148.425 14.8653 149.129 14.377 149.393 13.6445L152.208 5.74506H156.841C157.692 5.74506 158.381 6.42011 158.381 7.25314C158.381 7.42549 158.351 7.58348 158.293 7.75583L156.02 14.1329C155.14 16.6032 152.765 18.2549 150.097 18.2549H141.856L139.833 24H149.114C154.656 24 159.598 20.5673 161.43 15.4399L164.92 5.74506Z" fill="#36AB4B"/>
<path d="M56.3761 5.74506H56.3907L58.4141 0H41.2008C40.409 0 39.7052 0.502693 39.4413 1.23519L33.3712 18.2549H33.3565L31.3331 24H48.5465C49.3382 24 50.042 23.5117 50.306 22.7792L56.3761 5.74506ZM39.2507 18.2549L43.2095 6.98025C43.4734 6.23339 44.1772 5.74506 44.9836 5.74506H50.5112L46.4351 17.0341C46.1712 17.7666 45.4674 18.2549 44.6757 18.2549H39.2507Z" fill="black"/>
<path d="M186.825 4.50987L188.423 0H171.21C170.418 0 169.7 0.48833 169.436 1.23519L167.852 5.74506H185.065C185.857 5.74506 186.561 5.25673 186.825 4.50987Z" fill="#36AB4B"/>
<path d="M164.553 15.0234H181.767C182.558 15.0234 183.262 14.5207 183.526 13.7882L185.124 9.27835H167.911C167.119 9.27835 166.401 9.76668 166.137 10.5135L164.553 15.0234Z" fill="#36AB4B"/>
<path d="M161.298 24H178.512C179.303 24 180.022 23.5117 180.286 22.7648L181.884 18.2549H164.671C163.879 18.2549 163.175 18.7576 162.911 19.4901L161.298 24Z" fill="#36AB4B"/>
<path d="M136.387 18.2549H131.519C129.496 18.2549 127.854 16.6463 127.854 14.6643C127.854 14.2621 127.927 13.86 128.059 13.4722L129.393 9.72352C130.244 7.33932 132.531 5.74506 135.112 5.74506H142.149C142.941 5.74506 143.645 5.24237 143.909 4.50987L145.507 0H135.933C130.581 0 125.801 3.33214 124.042 8.28725L121.886 14.3196C120.537 18.1113 122.575 22.2621 126.446 23.5978C127.238 23.8707 128.059 24 128.895 24H136.974L138.147 20.6966C138.484 19.7487 137.985 18.7002 137.003 18.3555C136.812 18.2837 136.607 18.2549 136.387 18.2549Z" fill="#36AB4B"/>
<path d="M205.255 0L194.068 9.5368L197.47 0H191.605L183.057 23.9856H187.602C188.394 23.9856 189.098 23.4973 189.362 22.7648L190.784 18.8007L195.989 14.1903L198.848 24H204.713L200.652 10.0682L212.015 0.0143627L205.255 0Z" fill="#36AB4B"/>
<path d="M12.2576 24.0144C19.0272 24.0144 24.5151 18.6386 24.5151 12.0072C24.5151 5.3758 19.0272 0 12.2576 0C5.4879 0 0 5.3758 0 12.0072C0 18.6386 5.4879 24.0144 12.2576 24.0144Z" fill="#36AB4B"/>
<path d="M12.2576 24.0144C19.0272 24.0144 24.5151 18.6386 24.5151 12.0072C24.5151 5.3758 19.0272 0 12.2576 0C5.4879 0 0 5.3758 0 12.0072C0 18.6386 5.4879 24.0144 12.2576 24.0144Z" fill="url(#paint0_radial_1_969)"/>
<path d="M5.67438 16.4882L5.13188 19.9209C5.13188 19.9209 5.04391 20.2512 5.26384 20.2369C5.48377 20.2225 8.72411 15.2674 12.199 13.3572C15.674 11.4469 22.1106 9.39305 22.1106 9.39305C22.1106 9.39305 23.1223 9.01963 22.2426 8.876C21.3629 8.73237 16.583 8.876 16.583 8.876L9.98505 10.1112L6.27553 14.5349L5.67438 16.4882Z" fill="white"/>
<mask id="mask0_1_969" style="mask-type:alpha" maskUnits="userSpaceOnUse" x="5" y="8" width="18" height="13">
<path d="M5.67432 16.4882L5.13182 19.9209C5.13182 19.9209 5.04385 20.2512 5.26378 20.2369C5.48371 20.2225 8.72404 15.2674 12.199 13.3572C15.6739 11.4469 22.1106 9.39305 22.1106 9.39305C22.1106 9.39305 23.1223 9.01963 22.2425 8.876C21.3628 8.73237 16.583 8.876 16.583 8.876L9.98499 10.1112L6.27547 14.5349L5.67432 16.4882Z" fill="white"/>
</mask>
<g mask="url(#mask0_1_969)">
<path d="M5.07318 15.6553L4.53068 19.088C4.53068 19.088 4.44271 19.4183 4.66264 19.4039C4.88257 19.3896 8.12291 14.4345 11.5978 12.5099C15.0728 10.5853 21.5241 8.54576 21.5241 8.54576C21.5241 8.54576 22.5358 8.17233 21.6707 8.02871C20.8057 7.88508 16.0111 8.02871 16.0111 8.02871L9.41318 9.24953L5.68899 13.6732L5.07318 15.6553Z" fill="#DADADA"/>
</g>
<path d="M3.53365 5.9461C3.48966 5.84556 3.53365 5.71629 3.63628 5.6732C3.68027 5.65884 3.73892 5.64448 3.7829 5.65884C4.64797 5.93173 6.14351 6.23335 7.65371 6.49188C10.1903 6.92276 11.8031 6.82222 17.1694 6.85094C18.0932 6.85094 19.5007 6.86531 21.2309 6.89403C21.4361 6.89403 21.5388 7.21001 21.3482 7.26746C18.0345 8.30157 14.0024 9.60857 11.202 11.4614C7.33114 14.0179 5.5277 16.5888 4.07615 18.657C3.95885 18.8294 3.75358 18.5996 3.76824 18.3985C4.10547 14.6211 6.15817 10.614 6.04087 10.3267C5.87959 9.91019 5.11716 8.89044 4.83858 8.43084C4.35473 7.61216 3.92952 6.79349 3.53365 5.9461Z" fill="white"/>
</g>
<defs>
<radialGradient id="paint0_radial_1_969" cx="0" cy="0" r="1" gradientUnits="userSpaceOnUse" gradientTransform="translate(12.2502 12) scale(12.2502 12)">
<stop stop-color="#ADC924"/>
<stop offset="0.13" stop-color="#A2C525"/>
<stop offset="0.36" stop-color="#86B929"/>
<stop offset="0.66" stop-color="#57A730"/>
<stop offset="1" stop-color="#1C8F38"/>
</radialGradient>
<clipPath id="clip0_1_969">
<rect width="212" height="24" fill="white"/>
</clipPath>
</defs>
</svg>
