<svg width="160" height="143" viewBox="0 0 160 143" fill="none" xmlns="http://www.w3.org/2000/svg">
<path d="M42.406 25.7418H38.3727V42.3439H42.406V25.7418Z" fill="#3A3540"/>
<path d="M137.611 25.7408H133.578V42.343H137.611V25.7408Z" fill="#3A3540"/>
<path d="M99.4067 111.938L101.986 140.016H76.0798L78.5673 111.938H99.4067Z" fill="url(#paint0_linear_1_90)" stroke="black"/>
<path opacity="0.75" d="M100.457 126.909L99.0519 111.438H77.5949L75.5336 133.246C75.6273 133.246 100.27 127.002 100.457 126.909Z" fill="#444444"/>
<path d="M111.896 142.093H64.094C63.7192 142.093 63.571 141.848 63.571 141.747V139.286C63.571 139.185 63.7192 138.939 64.094 138.939H111.896C112.27 138.939 112.419 139.185 112.419 139.286V141.747C112.419 141.848 112.27 142.093 111.896 142.093Z" fill="#3D3D3D" stroke="black"/>
<path opacity="0.65" d="M92.0054 140.209C90.9838 140.978 90.0551 141.824 89.0334 142.593H95.5346C97.1134 141.209 98.7851 139.824 100.457 138.439H94.6058C93.6771 139.055 92.8412 139.593 92.0054 140.209Z" fill="#C2C2C2"/>
<path opacity="0.65" d="M68.3901 140.209C67.2756 140.978 66.2624 141.824 65.1479 142.593H72.2401C73.9625 141.209 75.7862 139.824 77.6098 138.439H71.3282C70.3151 139.055 69.3019 139.593 68.3901 140.209Z" fill="#C2C2C2"/>
<path d="M20.1019 117.697V117.687L20.1014 117.676L16.8423 42.1833L16.8423 42.1833L16.8421 42.18C16.763 40.5899 18.0295 39.2454 19.5988 39.2436C19.5998 39.2436 19.6008 39.2436 19.6019 39.2436L156.478 41.021H156.484C157.928 41.021 159.145 42.3324 159.15 43.9711L155.706 117.659C155.54 119.178 154.265 120.284 152.853 120.284H22.9541C21.4155 120.284 20.1019 119.062 20.1019 117.697Z" fill="#3D3D3D" stroke="black"/>
<path opacity="0.65" d="M158.919 59.0313C154.162 62.4603 149.314 65.5185 144.649 68.8548C137.423 74.0445 130.837 79.9756 124.342 85.9067C126.537 88.5943 128.916 91.0965 131.202 93.784C137.514 88.8723 144.192 84.1459 150.046 78.6782C153.247 75.7126 156.175 72.5617 159.193 69.3181L159.651 58.4753C159.376 58.7533 159.102 58.9387 158.919 59.0313Z" fill="#C2C2C2"/>
<path opacity="0.65" d="M132.14 101.633C130.494 99.7091 128.655 97.7848 126.913 95.8606C118.686 102.092 110.072 107.864 102.33 114.553C99.9099 116.661 97.6838 118.768 95.2642 120.784H110.363C118.009 114.828 125.849 109.147 133.688 103.283C133.108 102.733 132.527 102.183 132.14 101.633Z" fill="#C2C2C2"/>
<path opacity="0.65" d="M23.8766 88.8796C29.0552 86.1438 34.8929 83.7728 39.3183 79.9427C43.7436 76.1125 48.169 72.3736 52.971 68.9994C62.6691 62.1599 72.838 56.1411 81.6887 47.9337C84.1368 45.6539 86.5849 43.2828 89.0329 40.9118L79.6173 40.8206C65.4938 50.7607 51.0878 60.336 36.8702 69.4554C30.75 73.3767 24.6299 77.2069 18.4155 80.9458L18.8863 91.7067C20.487 90.7035 22.1818 89.7916 23.8766 88.8796Z" fill="#C2C2C2"/>
<path opacity="0.65" d="M27.144 58.7667C35.9728 52.3957 44.8955 45.9236 53.7243 39.2493L19.6301 38.7436C17.7516 38.7436 16.2489 40.3617 16.3428 42.4853L17.282 65.7444C20.5694 63.4185 23.8567 61.1937 27.144 58.7667Z" fill="#C2C2C2"/>
<path d="M154.378 118.707L23.502 118.61L20.4934 42.8976L157.574 44.647L154.378 118.707Z" fill="#1F1F1F"/>
<path d="M152.478 115.593L23.3237 115.5L20.4934 44.9756L155.497 46.6548L152.478 115.593Z" fill="white"/>
<path d="M64.6367 77.9846H110.691L109.753 110.626H66.3251L64.6367 77.9846Z" fill="#2EFFA5"/>
<path d="M78.8955 88.1161L101.782 88.3037L98.0302 100.216L79.7397 100.028L74.2994 81.644V81.4565H69.0468V82.9572H73.08L78.6141 101.623L78.7079 101.529V101.623L99.1557 101.717L103.752 86.8029L78.5203 86.6153L78.8955 88.1161Z" fill="black"/>
<path d="M97 102.747C95.7807 102.747 94.8427 103.685 94.7489 104.905C94.7489 106.124 95.6869 107.156 96.9062 107.156C98.1256 107.156 99.0636 106.218 99.1574 104.999C99.1574 103.779 98.2194 102.747 97 102.747Z" fill="black"/>
<path d="M82.2713 102.656C81.0519 102.656 80.1139 103.594 80.0201 104.813C80.0201 106.033 80.9581 107.065 82.1775 107.065C83.3969 107.065 84.3348 106.127 84.4286 104.907C84.4286 103.688 83.4906 102.656 82.2713 102.656Z" fill="black"/>
<path d="M98.0303 91.3062L79.8336 91.2124L80.3026 92.7132L97.5613 92.807L98.0303 91.3062Z" fill="black"/>
<path d="M96.2491 97.3092L96.7181 95.7146L81.1477 95.6208L81.6167 97.2154L96.2491 97.3092Z" fill="black"/>
<g opacity="0.55">
<path opacity="0.55" d="M60.7916 48.7194L24.9609 48.2504L25.9927 75.733C26.5555 75.3579 49.8173 57.5363 60.7916 48.7194Z" fill="#858585"/>
<path opacity="0.55" d="M60.1352 87.27C57.9779 87.0824 55.6329 86.8011 53.3818 86.5197C40.4378 96.556 29.3697 105.092 27.1185 106.78L27.3999 113.627H39.2184C44.7524 107.624 54.9764 97.963 65.9507 87.9266C63.9809 87.6452 62.105 87.4576 60.1352 87.27Z" fill="#D3D3D3"/>
<path opacity="0.55" d="M98.873 91.9594C90.4313 99.088 82.1771 106.217 74.2981 113.627H94.1831C98.2164 109.499 105.908 101.996 114.256 93.7415C109.097 93.1787 104.032 92.616 98.873 91.9594Z" fill="#D3D3D3"/>
</g>
<path d="M21.2096 45.1573L155.809 46.6581L175.225 66.2618L0.761719 66.5431L21.2096 45.1573Z" fill="#36AB4B"/>
<path d="M34.0597 45.0611L142.208 46.468L157.403 66.3531L17.5514 66.5407L34.0597 45.0611Z" fill="white"/>
<path d="M46.0655 45.2497L129.545 46.3753L140.895 66.3542L33.4028 66.5417L46.0655 45.2497Z" fill="#36AB4B"/>
<path d="M57.9797 45.4362L116.697 46.1866L124.576 66.353L49.069 66.5406L57.9797 45.4362Z" fill="white"/>
<path d="M69.3267 45.528L104.876 45.997L109.378 66.3511L63.9802 66.4449L69.3267 45.528Z" fill="#36AB4B"/>
<path d="M81.0525 45.7183L92.5896 45.8121L93.9028 66.4476H79.2704L81.0525 45.7183Z" fill="white"/>
<path d="M0.761719 66.5411C0.761719 71.3247 4.51362 75.1704 9.10969 75.1704C13.7058 75.1704 17.4577 71.3247 17.4577 66.5411H0.761719Z" fill="#36AB4B"/>
<path d="M17.4583 66.5411C17.4583 71.3247 21.0226 75.2642 25.431 75.2642C29.8395 75.2642 33.4038 71.3247 33.4038 66.5411H17.4583Z" fill="white"/>
<path d="M48.9738 66.5411C48.9738 71.3247 52.2567 75.2642 56.3837 75.2642C60.5108 75.2642 63.8875 71.3247 63.8875 66.5411H48.9738Z" fill="white"/>
<path d="M79.1771 66.4464C79.0833 71.3239 82.46 75.2634 86.4933 75.2634C90.6204 75.2634 93.9971 71.3239 93.9033 66.4464H79.1771Z" fill="white"/>
<path d="M109.378 66.3535C109.285 71.231 112.661 75.1705 116.882 75.1705C121.103 75.1705 124.48 71.231 124.48 66.3535H109.378Z" fill="white"/>
<path d="M140.802 66.3535C140.708 71.231 144.366 75.2642 148.962 75.2642C153.558 75.2642 157.31 71.231 157.31 66.3535H140.802Z" fill="white"/>
<path d="M33.4028 66.5411C33.4028 71.4185 36.8733 75.4518 41.2818 75.4518C45.6903 75.4518 49.1608 71.4185 49.1608 66.5411H33.4028Z" fill="#36AB4B"/>
<path d="M63.9811 66.4473C63.8873 71.4186 67.3578 75.358 71.5787 75.358C75.7996 75.358 79.2701 71.3248 79.2701 66.3535L63.9811 66.4473Z" fill="#36AB4B"/>
<path d="M93.9027 66.4464C93.8089 71.4177 97.2794 75.451 101.594 75.451C105.909 75.451 109.379 71.4177 109.379 66.4464H93.9027Z" fill="#36AB4B"/>
<path d="M124.574 66.3521C124.48 71.3234 128.045 75.3567 132.547 75.3567C137.049 75.3567 140.707 71.3234 140.707 66.2583L124.574 66.3521Z" fill="#36AB4B"/>
<path d="M157.309 66.3535C157.215 71.3248 161.154 75.4518 166.125 75.4518C171.097 75.4518 175.13 71.3248 175.224 66.3535H157.309Z" fill="#36AB4B"/>
<path d="M9.10969 75.2666C13.7058 75.2666 17.4577 71.4209 17.4577 66.6372L0.761719 66.5434C0.761719 71.3271 4.51362 75.2666 9.10969 75.2666Z" fill="#8DFFCE"/>
<path d="M116.882 75.2624C121.103 75.2624 124.48 71.3229 124.48 66.4455H109.378C109.285 71.2291 112.661 75.2624 116.882 75.2624Z" fill="#8DFFCE"/>
<path d="M148.962 75.2638C153.558 75.2638 157.31 71.2305 157.31 66.3531H140.708C140.708 71.2305 144.366 75.2638 148.962 75.2638Z" fill="#8DFFCE"/>
<path d="M48.9727 66.5417H33.3085H17.3629C17.3629 71.3254 20.9272 75.2649 25.3357 75.2649C29.7442 75.2649 33.3085 71.4192 33.3085 66.5417C33.3085 71.4192 36.779 75.4525 41.1875 75.4525C45.3145 75.4525 48.6913 71.7944 48.9727 67.1983C49.254 71.7006 52.4432 75.2649 56.3826 75.2649C60.5097 75.2649 63.8864 71.3254 63.8864 66.5417H49.0664H48.9727Z" fill="#8DFFCE"/>
<path d="M71.5777 75.45C75.7986 75.45 79.2691 71.4167 79.2691 66.4455H63.9801C63.8863 71.4167 67.3568 75.45 71.5777 75.45Z" fill="white"/>
<path d="M93.9033 66.4455H79.1771C79.0833 71.3229 82.46 75.2624 86.4933 75.2624C90.4328 75.2624 93.7157 71.6043 93.9033 66.9145C94.0909 71.6043 97.3738 75.45 101.501 75.45C105.816 75.45 109.286 71.4167 109.286 66.4455H93.9033Z" fill="#8DFFCE"/>
<path d="M132.548 75.4514C137.05 75.4514 140.708 71.4181 140.708 66.3531H124.481C124.481 71.3243 128.046 75.4514 132.548 75.4514Z" fill="white"/>
<path d="M157.309 66.3531C157.215 71.3243 161.154 75.4514 166.125 75.4514C171.097 75.4514 175.13 71.3243 175.224 66.3531H157.309Z" fill="white"/>
<path d="M0.761719 66.5401C0.761719 66.5401 51.6937 67.947 86.3988 67.947C121.573 67.8532 175.131 66.3525 175.131 66.3525L86.4926 65.9773L0.761719 66.5401Z" fill="#FFF8F7"/>
<path d="M23.668 0.819885H152.32C152.421 2.91351 153.154 4.98545 154.528 6.5791C155.934 8.20914 157.991 9.31488 160.656 9.43782V24.8755C157.987 25.0011 155.93 26.1315 154.526 27.7836C153.153 29.3983 152.421 31.4908 152.32 33.587H23.6781C23.6177 31.4903 22.905 29.3981 21.5326 27.7836C20.1252 26.1278 18.0436 24.9987 15.332 24.8751V9.53139C18.0009 9.40579 20.0581 8.2753 21.4623 6.6233C22.8348 5.00859 23.5675 2.91606 23.668 0.819885Z" fill="#36AB4B" stroke="black"/>
<path d="M153.84 16.7341C153.84 17.7659 152.996 18.6101 151.964 18.6101C150.932 18.6101 150.088 17.7659 150.088 16.7341C150.088 15.7024 150.932 14.8582 151.964 14.8582C152.902 14.8582 153.84 15.7024 153.84 16.7341Z" fill="#FFF3F3"/>
<path d="M25.9947 16.7379C25.9947 17.7696 25.1505 18.6138 24.1187 18.6138C23.087 18.6138 22.2428 17.7696 22.2428 16.7379C22.2428 15.7061 23.087 14.8619 24.1187 14.8619C25.1505 14.8619 25.9947 15.7061 25.9947 16.7379Z" fill="#FFF3F3"/>
<path d="M77.6756 3.69705C69.4214 11.576 61.4487 19.6426 52.9131 27.0526C51.5061 28.272 50.193 29.3975 48.786 30.6169H59.0099C65.482 24.0511 72.0478 17.4853 78.3322 10.6381C80.3019 8.48072 82.5531 6.13579 84.8042 3.69705H77.6756Z" fill="#43DC60"/>
<path d="M106.849 3.69705C100.564 13.5458 91.7473 22.3627 83.3055 30.7107H100.095C102.722 27.5216 105.254 24.3325 107.88 21.1434C112.664 15.3279 117.448 9.60629 122.138 3.69705H106.849Z" fill="#43DC60"/>
<path d="M150.652 3.69705H149.152C143.43 11.6698 136.489 19.0798 130.58 26.2084C129.36 27.7092 128.141 29.21 126.922 30.7107H150.652C150.652 27.2402 152.904 23.7697 157.406 23.7697V10.6381C152.904 10.6381 150.652 7.16756 150.652 3.69705Z" fill="#43DC60"/>
<path fill-rule="evenodd" clip-rule="evenodd" d="M32.679 22.1965C31.8107 21.7048 31.1148 21.0246 30.6026 20.1675L30.5992 20.1617L30.5958 20.1559C30.0861 19.2746 29.8395 18.2916 29.8395 17.2307C29.8395 16.1699 30.0861 15.1894 30.5983 14.3144L30.6 14.3114C31.1126 13.4432 31.8113 12.7589 32.6865 12.2738C33.5583 11.7906 34.5125 11.5522 35.5311 11.5522C36.5559 11.5522 37.5114 11.7895 38.3779 12.275C39.2531 12.7606 39.9482 13.4461 40.452 14.3165C40.4651 14.3388 40.478 14.3612 40.4907 14.3837V11.6967H44.5097L46.4918 14.7268V11.6967H54.9815V18.9847H56.9822V11.6967H65.0407L67.0228 14.7268V11.6967H78.8611V15.6343H78.4671V18.8928H78.8611V22.8304H67.4571L65.4714 19.833V22.8304H46.9261L44.9404 19.833V22.8304H40.4907V20.0902C40.4784 20.1122 40.4659 20.1341 40.4533 20.1559L40.4508 20.1602C39.9467 21.0214 39.2532 21.7039 38.3833 22.1965L38.3758 22.2007C37.5039 22.684 36.5497 22.9223 35.5311 22.9223C34.5125 22.9223 33.5583 22.6839 32.6865 22.2007L32.679 22.1965ZM44.0025 16.7186L47.4298 21.8924H50.0036V12.6346H47.4298V17.8742L44.0025 12.6346H41.4286V21.8924H44.0025V16.7186ZM64.5335 16.7186L67.9608 21.8924H70.5346V12.6346H67.9608V17.8742L64.5335 12.6346H61.9597V21.8924H64.5335V16.7186ZM74.5746 19.8308V18.1631H77.5292V16.2064H74.5746V14.6963H77.9231V12.6346H72.0008V21.8924H77.9231V19.8308H74.5746ZM54.0435 19.9227V12.6346H51.4697V21.8924H56.9194V19.9227H54.0435ZM39.6413 14.7882C39.2211 14.0616 38.6477 13.4969 37.9211 13.0942C37.2032 12.6915 36.4065 12.4902 35.5311 12.4902C34.6644 12.4902 33.8678 12.6915 33.1411 13.0942C32.4145 13.4969 31.8367 14.0616 31.4078 14.7882C30.9876 15.5061 30.7775 16.3202 30.7775 17.2307C30.7775 18.1412 30.9876 18.9597 31.4078 19.6863C31.8367 20.4042 32.4145 20.9689 33.1411 21.3803C33.8678 21.783 34.6644 21.9844 35.5311 21.9844C36.3978 21.9844 37.1944 21.783 37.9211 21.3803C38.6477 20.9689 39.2211 20.4042 39.6413 19.6863C40.0615 18.9597 40.2716 18.1412 40.2716 17.2307C40.2716 16.3202 40.0615 15.5061 39.6413 14.7882ZM36.3827 18.3243C36.578 18.1068 36.7205 17.7762 36.7205 17.2307C36.7205 16.6598 36.574 16.3328 36.3892 16.1311L36.3823 16.1237L36.3756 16.116C36.205 15.9215 35.9627 15.7919 35.5311 15.7919C35.0864 15.7919 34.8416 15.9244 34.6734 16.116L34.6671 16.1232C34.4868 16.3245 34.3418 16.6545 34.3418 17.2307C34.3418 17.7905 34.483 18.1264 34.6702 18.3417C34.8365 18.5256 35.0829 18.6564 35.5311 18.6564C35.9627 18.6564 36.205 18.5268 36.3756 18.3323L36.3827 18.3243ZM33.9684 18.9641C33.592 18.5351 33.4038 17.9573 33.4038 17.2307C33.4038 16.4953 33.592 15.9175 33.9684 15.4973C34.3449 15.0684 34.8658 14.8539 35.5311 14.8539C36.1877 14.8539 36.7042 15.0684 37.0806 15.4973C37.4658 15.9175 37.6584 16.4953 37.6584 17.2307C37.6584 17.9486 37.4658 18.522 37.0806 18.951C36.7042 19.3799 36.1877 19.5944 35.5311 19.5944C34.8658 19.5944 34.3449 19.3843 33.9684 18.9641ZM85.4275 22.8304L84.8656 21.001V22.8304H81.2169V11.5785H85.5516L87.1241 16.6589L88.7896 11.5785H93.1123V19.7709L96.0055 11.5391H99.7631L102.671 19.7807V11.5785H110.47V14.4982L111.51 11.5391H115.267L117.676 18.3666V18.348L119.023 18.9996C119.234 19.102 119.485 19.1964 119.777 19.2796C120.081 19.3569 120.388 19.4191 120.699 19.4661C121.012 19.505 121.293 19.5231 121.543 19.5231C122.328 19.5231 122.699 19.4037 122.832 19.3188C122.909 19.2682 122.935 19.2303 122.944 19.2138C122.952 19.1988 122.967 19.1657 122.968 19.0929C122.943 19.073 122.885 19.0339 122.766 18.9899L122.754 18.9853C122.363 18.8341 121.762 18.7333 120.899 18.7333H119.081V15.9595L117.238 13.1379L118.022 12.6246C118.58 12.259 119.194 11.9738 119.857 11.7659C120.558 11.5463 121.353 11.4472 122.225 11.4472C123.398 11.4472 124.446 11.6874 125.252 12.2878C126.06 12.8825 126.525 13.7062 126.525 14.7094C126.525 15.5521 126.227 16.2971 125.617 16.865C125.675 16.9084 125.732 16.9538 125.787 17.0011C126.232 17.3734 126.535 17.8313 126.69 18.352V11.5785H130.352V16.2033L133.168 11.5785H137.01V22.8304H133.361V18.1798L130.547 22.8304H126.69V20.1728C126.495 20.8859 126.07 21.4989 125.441 21.9889L125.44 21.9899C124.543 22.6867 123.321 22.9617 121.923 22.9617C121.178 22.9617 120.497 22.9158 119.885 22.8188L119.883 22.8185C119.647 22.7803 119.419 22.7348 119.199 22.6813L119.251 22.8304H115.091L114.409 20.598H112.382L111.699 22.8304H107.541L110.259 15.0959H106.53V22.8304H99.5873L98.9045 20.598H96.8782L96.1953 22.8304H89.3848V20.5212L88.6247 22.8304H85.4275ZM90.3622 14.5519H90.4147L90.3753 15.3398C90.374 15.3893 90.3727 15.4393 90.3712 15.4898C90.3626 15.7871 90.3509 16.1004 90.3359 16.4297C90.3272 16.8149 90.3228 17.1563 90.3228 17.4539V21.8924H92.1743V12.5164H89.4692L87.1187 19.6863H87.0793L84.86 12.5164H82.1549V21.8924H83.9277V17.5327C83.9277 17.2088 83.9189 16.8499 83.9014 16.4559C83.8864 16.1102 83.8713 15.7838 83.8563 15.4767C83.8538 15.4261 83.8514 15.3761 83.8489 15.3266L83.8095 14.5387H83.862L84.4435 16.4319L86.1207 21.8924H87.9459L90.3622 14.5519ZM96.1842 19.6601H99.5984L100.281 21.8924H102.422L99.0994 12.4771H96.6701L93.3609 21.8924H95.5014L96.1842 19.6601ZM97.4101 15.6361C97.3882 15.709 97.3692 15.7678 97.3529 15.8125L96.6832 17.9923H99.1257L98.4429 15.8125C98.4263 15.7564 98.408 15.6946 98.3877 15.6273C98.3837 15.614 98.3797 15.6005 98.3755 15.5868C98.373 15.5783 98.3704 15.5697 98.3677 15.5609C98.3392 15.4665 98.3073 15.3621 98.2721 15.2478C98.218 15.0718 98.1638 14.8932 98.1097 14.7119C98.1086 14.7084 98.1076 14.7049 98.1065 14.7013C98.0917 14.6517 98.0769 14.6019 98.062 14.5519C97.992 14.3155 97.9351 14.1098 97.8913 13.9347C97.8475 14.1098 97.7863 14.3286 97.7075 14.5912C97.7009 14.6152 97.6943 14.639 97.6877 14.6628C97.6243 14.8912 97.5608 15.1125 97.4974 15.3266C97.4804 15.3898 97.4644 15.4479 97.4494 15.501C97.4354 15.5504 97.4223 15.5954 97.4101 15.6361ZM105.592 14.1579H109.532V12.5164H103.609V21.8924H105.592V14.1579ZM111.688 19.6601H115.102L115.785 21.8924H117.926L114.603 12.4771H112.174L108.865 21.8924H111.005L111.688 19.6601ZM112.914 15.6361C112.892 15.709 112.873 15.7678 112.857 15.8125L112.187 17.9923H114.63L113.947 15.8125C113.93 15.7564 113.912 15.6946 113.892 15.6273C113.888 15.614 113.884 15.6005 113.88 15.5868C113.877 15.5783 113.874 15.5697 113.872 15.5609C113.843 15.4665 113.811 15.3621 113.776 15.2478C113.722 15.0718 113.668 14.8932 113.614 14.7119C113.613 14.7084 113.612 14.7049 113.611 14.7013C113.596 14.6517 113.581 14.6019 113.566 14.5519C113.496 14.3155 113.439 14.1098 113.395 13.9347C113.352 14.1098 113.29 14.3286 113.212 14.5912C113.205 14.6152 113.198 14.639 113.192 14.6628C113.128 14.8912 113.065 15.1125 113.001 15.3266C112.984 15.3898 112.968 15.4479 112.953 15.501C112.939 15.5504 112.926 15.5954 112.914 15.6361ZM118.813 21.5885C119.17 21.7176 119.577 21.8189 120.033 21.8924C120.584 21.98 121.214 22.0238 121.923 22.0238C123.219 22.0238 124.2 21.7655 124.865 21.249C125.539 20.7237 125.876 20.0496 125.876 19.2267C125.876 18.6052 125.644 18.1018 125.18 17.7166C125.063 17.6148 124.932 17.5233 124.787 17.442C124.374 17.2092 123.85 17.0601 123.216 16.9949C123.214 16.9947 123.212 16.9945 123.21 16.9943V16.9549C123.212 16.9548 123.213 16.9546 123.214 16.9544C123.81 16.8709 124.315 16.6801 124.728 16.3821C124.794 16.3349 124.857 16.2852 124.917 16.2327C125.364 15.8475 125.587 15.3398 125.587 14.7094C125.587 14.0353 125.29 13.4794 124.694 13.0417C124.108 12.604 123.285 12.3851 122.225 12.3851C121.42 12.3851 120.724 12.4771 120.138 12.6609C119.867 12.7456 119.608 12.8443 119.36 12.9568C119.074 13.087 118.802 13.2358 118.545 13.4033C118.542 13.4053 118.539 13.4073 118.535 13.4094L119.402 14.7357C119.77 14.5081 120.164 14.3242 120.584 14.1842C121.013 14.0441 121.468 13.9741 121.95 13.9741C122.519 13.9741 122.943 14.0704 123.223 14.263C123.512 14.4468 123.657 14.7007 123.657 15.0246C123.657 15.2785 123.574 15.4973 123.407 15.6812C123.241 15.8647 122.953 16.0046 122.543 16.1009C122.542 16.101 122.541 16.1012 122.541 16.1014C122.458 16.1207 122.369 16.1382 122.272 16.1536C121.89 16.2151 121.402 16.2458 120.807 16.2458H120.019V17.7954H120.899C121.818 17.7954 122.549 17.9004 123.092 18.1105C123.635 18.3119 123.906 18.6358 123.906 19.0823C123.906 19.52 123.718 19.8614 123.342 20.1065C122.974 20.3429 122.374 20.4611 121.543 20.4611C121.245 20.4611 120.921 20.4392 120.571 20.3954C120.227 20.3439 119.888 20.2754 119.552 20.1901C119.546 20.1885 119.54 20.1869 119.534 20.1853C119.192 20.089 118.886 19.9752 118.614 19.8439V21.5116C118.675 21.5366 118.737 21.5607 118.8 21.5839C118.805 21.5854 118.809 21.587 118.813 21.5885ZM134.309 16.6134L134.313 16.6077C134.321 16.3209 134.33 16.0471 134.339 15.7862C134.349 15.6324 134.358 15.4906 134.365 15.3608C134.37 15.269 134.374 15.1832 134.378 15.1034C134.393 14.9299 134.405 14.8084 134.414 14.7389C134.415 14.7277 134.416 14.7179 134.417 14.7094H134.365L133.383 16.3328C133.38 16.4158 133.377 16.4999 133.375 16.5851M129.322 19.6338H129.362L129.587 19.2643L129.988 18.6044L130.331 18.0415M129.325 19.6114C129.324 19.6194 129.323 19.6269 129.322 19.6338L129.325 19.6114ZM129.325 19.6114C129.333 19.5381 129.341 19.4187 129.349 19.253C129.353 19.1567 129.357 19.0527 129.362 18.941C129.366 18.8294 129.37 18.7102 129.375 18.5833C129.384 18.3206 129.392 18.0536 129.401 17.7822C129.401 17.7763 129.401 17.7704 129.402 17.7645M129.414 13.4544V12.5164H127.628V21.8924H128.566M120.305 15.3079H120.807C121.525 15.3079 122.019 15.2601 122.327 15.1881C122.485 15.1511 122.591 15.1121 122.657 15.0801C122.685 15.0662 122.703 15.0555 122.712 15.0492L122.706 15.0453L122.692 15.0359C122.642 15.0014 122.444 14.912 121.95 14.912C121.561 14.912 121.206 14.9681 120.878 15.075C120.679 15.1413 120.488 15.219 120.305 15.3079ZM147.059 22.8304H143.2V18.7859H141.36V22.8304H137.501V11.5785H141.36V15.2553H143.2V11.5785H147.059V22.8304ZM144.138 16.1933H140.422V12.5164H138.439V21.8924H140.422V17.8479H144.138V21.8924H146.121V12.5164H144.138V16.1933ZM60.4939 12.6346H57.9201V21.8924H60.4939V12.6346Z" fill="black"/>
<path d="M35.5306 21.9857C34.6639 21.9857 33.8673 21.7844 33.1407 21.3816C32.4141 20.9702 31.8363 20.4055 31.4073 19.6877C30.9871 18.9611 30.777 18.1425 30.777 17.2321C30.777 16.3216 30.9871 15.5074 31.4073 14.7896C31.8363 14.0629 32.4141 13.4983 33.1407 13.0956C33.8673 12.6929 34.6639 12.4915 35.5306 12.4915C36.4061 12.4915 37.2027 12.6929 37.9206 13.0956C38.6472 13.4983 39.2206 14.0629 39.6408 14.7896C40.061 15.5074 40.2712 16.3216 40.2712 17.2321C40.2712 18.1425 40.061 18.9611 39.6408 19.6877C39.2206 20.4055 38.6472 20.9702 37.9206 21.3816C37.194 21.7844 36.3973 21.9857 35.5306 21.9857ZM35.5306 19.5957C36.1872 19.5957 36.7037 19.3813 37.0802 18.9523C37.4654 18.5233 37.658 17.9499 37.658 17.2321C37.658 16.4967 37.4654 15.9189 37.0802 15.4987C36.7037 15.0697 36.1872 14.8552 35.5306 14.8552C34.8653 14.8552 34.3444 15.0697 33.968 15.4987C33.5915 15.9189 33.4033 16.4967 33.4033 17.2321C33.4033 17.9587 33.5915 18.5365 33.968 18.9654C34.3444 19.3856 34.8653 19.5957 35.5306 19.5957Z" fill="white"/>
<path d="M50.0031 21.8938H47.4293L44.002 16.7199V21.8938H41.4282V12.636H44.002L47.4293 17.8755V12.636H50.0031V21.8938Z" fill="white"/>
<path d="M54.0431 19.924H56.9189V21.8938H51.4693V12.636H54.0431V19.924Z" fill="white"/>
<path d="M60.4935 12.636V21.8938H57.9197V12.636H60.4935Z" fill="white"/>
<path d="M70.5341 21.8938H67.9603L64.533 16.7199V21.8938H61.9592V12.636H64.533L67.9603 17.8755V12.636H70.5341V21.8938Z" fill="white"/>
<path d="M74.5741 14.6976V16.2078H77.5287V18.1644H74.5741V19.8321H77.9226V21.8938H72.0003V12.636H77.9226V14.6976H74.5741Z" fill="white"/>
<path d="M86.1202 21.8938L83.8615 14.5401H83.809C83.8178 14.7152 83.8309 14.9778 83.8484 15.328C83.8659 15.6781 83.8834 16.0546 83.9009 16.4573C83.9184 16.8512 83.9272 17.2102 83.9272 17.5341V21.8938H82.1544V12.5178H84.8595L87.0788 19.6877H87.1182L89.4687 12.5178H92.1739V21.8938H90.3223V17.4553C90.3223 17.1576 90.3267 16.8162 90.3354 16.431C90.3529 16.0458 90.3661 15.6825 90.3748 15.3411C90.3923 14.9909 90.4055 14.7283 90.4142 14.5532H90.3617L87.9455 21.8938H86.1202Z" fill="white"/>
<path d="M100.281 21.8938L99.598 19.6614H96.1837L95.5009 21.8938H93.3604L96.6696 12.4784H99.099L102.421 21.8938H100.281ZM98.4424 15.8138C98.3986 15.665 98.3417 15.4768 98.2717 15.2492C98.2016 15.0216 98.1316 14.7896 98.0616 14.5532C97.9915 14.3168 97.9346 14.1111 97.8908 13.936C97.8471 14.1111 97.7858 14.33 97.707 14.5926C97.637 14.8465 97.5669 15.0916 97.4969 15.328C97.4356 15.5556 97.3875 15.7175 97.3524 15.8138L96.6827 17.9937H99.1252L98.4424 15.8138Z" fill="white"/>
<path d="M109.531 12.5178V14.1592H105.592V21.8938H103.609V12.5178H109.531Z" fill="white"/>
<path d="M115.785 21.8938L115.102 19.6614H111.688L111.005 21.8938H108.864L112.174 12.4784H114.603L117.925 21.8938H115.785ZM113.946 15.8138C113.903 15.665 113.846 15.4768 113.776 15.2492C113.706 15.0216 113.636 14.7896 113.566 14.5532C113.496 14.3168 113.439 14.1111 113.395 13.936C113.351 14.1111 113.29 14.33 113.211 14.5926C113.141 14.8465 113.071 15.0916 113.001 15.328C112.94 15.5556 112.892 15.7175 112.856 15.8138L112.187 17.9937H114.629L113.946 15.8138Z" fill="white"/>
<path d="M125.587 14.7108C125.587 15.3411 125.363 15.8489 124.917 16.234C124.471 16.6192 123.901 16.86 123.21 16.9563V16.9957C124.068 17.0832 124.724 17.324 125.18 17.7179C125.644 18.1031 125.876 18.6065 125.876 19.2281C125.876 20.051 125.539 20.7251 124.864 21.2503C124.199 21.7668 123.219 22.0251 121.923 22.0251C121.214 22.0251 120.584 21.9813 120.032 21.8938C119.489 21.8062 119.017 21.6793 118.614 21.513V19.8452C118.885 19.9766 119.192 20.0904 119.533 20.1867C119.874 20.2742 120.22 20.3443 120.57 20.3968C120.921 20.4405 121.245 20.4624 121.542 20.4624C122.374 20.4624 122.974 20.3443 123.341 20.1079C123.718 19.8628 123.906 19.5213 123.906 19.0836C123.906 18.6371 123.634 18.3132 123.092 18.1119C122.549 17.9018 121.818 17.7967 120.899 17.7967H120.019V16.2472H120.807C121.551 16.2472 122.129 16.199 122.54 16.1027C122.952 16.0064 123.241 15.8664 123.407 15.6825C123.573 15.4987 123.656 15.2798 123.656 15.0259C123.656 14.702 123.512 14.4481 123.223 14.2643C122.943 14.0717 122.518 13.9754 121.949 13.9754C121.468 13.9754 121.013 14.0454 120.584 14.1855C120.163 14.3256 119.769 14.5094 119.402 14.737L118.535 13.4107C119.017 13.0956 119.551 12.8461 120.137 12.6622C120.724 12.4784 121.42 12.3865 122.225 12.3865C123.284 12.3865 124.107 12.6053 124.694 13.0431C125.289 13.4808 125.587 14.0367 125.587 14.7108Z" fill="white"/>
<path d="M127.628 12.5178H129.414V17.0482C129.414 17.2671 129.409 17.5122 129.401 17.7836C129.392 18.055 129.383 18.322 129.374 18.5846C129.366 18.8385 129.357 19.0617 129.348 19.2543C129.339 19.4382 129.331 19.5651 129.322 19.6351H129.361L133.695 12.5178H136.072V21.8938H134.299V17.3896C134.299 17.1533 134.303 16.895 134.312 16.6149C134.321 16.326 134.329 16.0502 134.338 15.7876C134.356 15.5249 134.369 15.2973 134.378 15.1047C134.395 14.9034 134.408 14.7721 134.417 14.7108H134.364L130.018 21.8938H127.628V12.5178Z" fill="white"/>
<path d="M146.12 21.8938H144.138V17.8492H140.421V21.8938H138.438V12.5178H140.421V16.1947H144.138V12.5178H146.12V21.8938Z" fill="white"/>
<defs>
<linearGradient id="paint0_linear_1_90" x1="89.0166" y1="113.707" x2="89.0166" y2="139.123" gradientUnits="userSpaceOnUse">
<stop offset="0.2246" stop-color="#5E5E5E"/>
<stop offset="1" stop-color="#A4A4A4"/>
</linearGradient>
</defs>
</svg>
